<svg preserveAspectRatio="none" width="100%" height="100%" overflow="visible" style="display: block;" viewBox="0 0 95.8051 29" fill="none" xmlns="http://www.w3.org/2000/svg">
<g id="&#228;&#191;&#174;&#230;&#148;&#185;_&#231;&#148;&#168;svg_&#232;&#163;&#133;&#233;&#165;&#176;&#231;&#148;&#168;&#231;&#154;&#132;&#230;&#157;&#161;&#229;&#189;&#162;&#231;&#160;&#129;">
<path d="M30.608 0H29.2731V29H30.608V0Z" fill="var(--fill-0, #BAB0AB)"/>
<path d="M27.9381 0H22.6103V29H27.9381V0Z" fill="var(--fill-0, #BAB0AB)"/>
<path d="M11.9786 0H7.98576V29H11.9786V0Z" fill="var(--fill-0, #BAB0AB)"/>
<path d="M21.2874 0H19.9524V29H21.2874V0Z" fill="var(--fill-0, #BAB0AB)"/>
<path d="M18.6295 0H14.6366V29H18.6295V0Z" fill="var(--fill-0, #BAB0AB)"/>
<path d="M66.5319 0V29H69.178C69.178 19.3377 69.178 9.66227 69.178 0H66.52H66.5319Z" fill="var(--fill-0, #BAB0AB)"/>
<path d="M73.1828 0V29H75.8288C75.8288 19.3377 75.8288 9.66227 75.8288 0H73.1709H73.1828Z" fill="var(--fill-0, #BAB0AB)"/>
<path d="M0 29H2.65794V0H0V29Z" fill="var(--fill-0, #BAB0AB)"/>
<path d="M5.32777 0H3.99284V29H5.32777V0Z" fill="var(--fill-0, #BAB0AB)"/>
<path d="M54.5533 0V29H57.1994C57.1994 19.3377 57.1994 9.66227 57.1994 0H54.5414H54.5533Z" fill="var(--fill-0, #BAB0AB)"/>
<path d="M86.4844 0H85.1495V29H86.4844V0Z" fill="var(--fill-0, #BAB0AB)"/>
<path d="M82.4915 0H78.4986V29H82.4915V0Z" fill="var(--fill-0, #BAB0AB)"/>
<path d="M95.8051 0H91.8122V29H95.8051V0Z" fill="var(--fill-0, #BAB0AB)"/>
<path d="M89.1542 0H87.8193V29H89.1542V0Z" fill="var(--fill-0, #BAB0AB)"/>
<path d="M65.197 0H61.2041V29H65.197V0Z" fill="var(--fill-0, #BAB0AB)"/>
<path d="M59.8811 0H58.5462V29H59.8811V0Z" fill="var(--fill-0, #BAB0AB)"/>
<path d="M35.9239 0H31.931V29H35.9239V0Z" fill="var(--fill-0, #BAB0AB)"/>
<path d="M45.2446 0H43.9097V29H45.2446V0Z" fill="var(--fill-0, #BAB0AB)"/>
<path d="M42.5747 29V0H39.9168C39.9168 2.91318 39.9168 5.82636 39.9168 8.75273C39.9168 15.5018 39.9168 22.2509 39.9168 29H42.5747Z" fill="var(--fill-0, #BAB0AB)"/>
<path d="M50.5605 0H46.5676V29H50.5605V0Z" fill="var(--fill-0, #BAB0AB)"/>
</g>
</svg>
