<svg preserveAspectRatio="none" width="100%" height="100%" overflow="visible" style="display: block;" viewBox="0 0 19.9594 20" fill="none" xmlns="http://www.w3.org/2000/svg">
<g id="&#228;&#191;&#174;&#230;&#148;&#185;_&#231;&#148;&#168;svg_&#232;&#163;&#133;&#233;&#165;&#176;&#231;&#148;&#168;&#231;&#154;&#132;icon">
<path d="M9.9797 0C4.47621 0 0 4.48532 0 10C0 15.5147 4.47621 20 9.9797 20C15.4832 20 19.9594 15.5147 19.9594 10C19.9594 4.48532 15.4832 0 9.9797 0ZM9.9797 18.0007C5.57765 18.0007 1.9952 14.411 1.9952 10C1.9952 5.589 5.57765 1.99926 9.9797 1.99926C14.3817 1.99926 17.9642 5.589 17.9642 10C17.9642 14.411 14.3817 18.0007 9.9797 18.0007Z" fill="var(--fill-0, #443F5D)"/>
<path d="M9.9797 12.9989C8.3294 12.9989 6.98691 11.6537 6.98691 10H4.99171C4.99171 12.7573 7.23167 14.9981 9.9797 14.9981C12.7277 14.9981 14.9677 12.7536 14.9677 10H12.9725C12.9725 11.6537 11.63 12.9989 9.9797 12.9989Z" fill="var(--fill-0, #443F5D)"/>
<path d="M8.48144 6.00148H6.48624V8.33891H8.48144V6.00148Z" fill="var(--fill-0, #443F5D)"/>
<path d="M13.4731 6.00148H11.478V8.33891H13.4731V6.00148Z" fill="var(--fill-0, #443F5D)"/>
</g>
</svg>
