<svg preserveAspectRatio="none" width="100%" height="100%" overflow="visible" style="display: block;" viewBox="0 0 19 19" fill="none" xmlns="http://www.w3.org/2000/svg">
<path id="&#228;&#191;&#174;&#230;&#148;&#185;_&#231;&#148;&#168;svg_&#232;&#163;&#133;&#233;&#165;&#176;&#231;&#148;&#168;&#231;&#154;&#132;&#230;&#144;&#156;&#231;&#180;&#162;icon" d="M0 17.203L5.681 11.5231C4.8222 10.2997 4.3548 8.83323 4.3548 7.32114C4.3548 3.27874 7.6304 0 11.6774 0C15.7244 0 19 3.27874 19 7.32494C19 11.3711 15.7206 14.6499 11.6774 14.6499C10.1612 14.6499 8.6944 14.1788 7.4708 13.3201L1.7936 19L0 17.2068L0 17.203ZM9.8458 11.7473C11.6356 12.4881 13.6952 12.0778 15.067 10.7101C16.435 9.33853 16.8454 7.27934 16.1044 5.4899C15.3634 3.70046 13.6154 2.53409 11.6812 2.53409C9.0402 2.54169 6.897 4.68066 6.8932 7.32494C6.8932 9.26255 8.0598 11.0064 9.8496 11.7511L9.8458 11.7473Z" fill="var(--fill-0, black)"/>
</svg>
